<?xml version="1.0" encoding="UTF-8"?>
<svg width="24px" height="24px" viewBox="0 0 24 24" version="1.1" xmlns="http://www.w3.org/2000/svg" xmlns:xlink="http://www.w3.org/1999/xlink">
    <g stroke="none" stroke-width="1" fill="none" fill-rule="evenodd">
        <path d="M12,1 C18.0751322,1 23,5.92486775 23,12 C23,18.0751322 18.0751322,23 12,23 C5.92486775,23 1,18.0751322 1,12 C1,5.92486775 5.92486775,1 12,1 Z M12,3 C7.02943725,3 3,7.02943725 3,12 C3,16.9705627 7.02943725,21 12,21 C16.9705627,21 21,16.9705627 21,12 C21,7.02943725 16.9705627,3 12,3 Z M12,7 C14.209139,7 16,8.790861 16,11 C16,12.2641929 15.3567493,13.3919054 14.3599201,14.0696945 C14.7346153,14.3619147 15.0801463,14.6933419 15.4030499,15.0617544 C15.7745452,15.4830514 15.7435083,16.1159359 15.3344996,16.5000232 C14.9096773,16.9000931 14.2552074,16.8669764 13.8643466,16.4266662 C13.3929511,15.8927301 12.7903886,15.516903 12.000217,15.5001392 C11.2098567,15.4833755 10.6072942,15.8592026 10.1357099,16.3931387 C9.74484913,16.8334489 9.09037928,16.8665656 8.66555694,16.4664957 C8.25654819,16.0824084 8.22551134,15.4495239 8.59700662,15.0282269 C8.91991021,14.6598144 9.26544125,14.3283872 9.64013646,14.036167 C8.64330733,13.3583778 8,12.2306653 8,10.9664724 C8,8.75733142 9.790861,6.9664724 12,6.9664724 L12,7 Z M12,9 C10.8954305,9 10,9.8954305 10,11 C10,12.1045695 10.8954305,13 12,13 C13.1045695,13 14,12.1045695 14,11 C14,9.8954305 13.1045695,9 12,9 Z" fill="#000000"></path>
    </g>
</svg>
