<svg xmlns="http://www.w3.org/2000/svg" shape-rendering="geometricPrecision" text-rendering="geometricPrecision" image-rendering="optimizeQuality" fill-rule="evenodd" clip-rule="evenodd" viewBox="0 0 331 511.942"><path d="M20.816 426.858c0-119.772-42.488-294.387 61.318-359.86 25.31-15.965 53.72-25.707 80.749-24.862 25.775.807 50.995 11.943 69.681 30.742 54.257 54.589 32.786 169.126 9.496 233.486a241.881 241.881 0 01-4.735 12.044h-45.781c10.433-11.974 19.7-23.991 27.362-36.887 9.483-15.962 16.454-33.208 20.056-53.265 8.849-49.276-2.916-85.853-23.559-108.117-9.695-10.455-21.359-17.76-33.809-21.76-12.504-4.017-25.761-4.698-38.584-1.895-24.411 5.34-47.247 23.212-60.236 54.609-5.773 13.957-8.072 28.116-6.628 42.488 1.388 13.8 6.229 27.714 14.766 41.747-11.389 2.954-21.569 8.917-29.638 16.986-11.782 11.78-19.069 28.056-19.069 46.03 0 14 4.423 26.968 11.944 37.587a51.837 51.837 0 00-2.276 2.586c-5.396 6.551-9.273 14.809-11.425 23.46-2.188 8.797-2.614 18.103-1.06 26.51 2.002 10.841 7.527 14.872 16.208 12.784 5.805-1.394 13.006-6.705 21.439-15.487 6.779-7.059 14.794-14.702 23.272-22.713a66 66 0 006.996.373c12.244 0 23.698-3.382 33.481-9.263-14.822 15.696-34.755 38.74-34.29 52.741a6.081 6.081 0 1012.155-.381c-.389-11.707 26.101-39.071 39.018-52.365a59.835 59.835 0 0016.457 2.306h43.836c-30.91 52.437-78.68 104.768-124.815 131.897-17.623 10.361-32.857 14.038-45.111 9.369-27.866-10.624-27.218-46.308-27.218-70.89zm97.148-161.507c17.051 0 30.914 13.878 30.914 30.913 0 8.503-3.462 16.219-9.055 21.813l-.047.046c-5.594 5.593-13.308 9.056-21.812 9.056-17.043 0-30.914-13.895-30.914-30.915 0-8.534 3.461-16.263 9.056-21.858 5.594-5.594 13.323-9.055 21.858-9.055zm0 11.759c10.58 0 19.155 8.576 19.155 19.154 0 10.58-8.575 19.156-19.155 19.156-10.579 0-19.155-8.576-19.155-19.156 0-10.578 8.576-19.154 19.155-19.154zM250.9 317.367c.911-2.3 1.778-4.586 2.599-6.856 6.359-17.572 12.701-38.922 17.567-61.902l-4.301 45.199a12.4 12.4 0 00-.201 2.228c0 6.133-2.523 11.722-6.586 15.785a22.535 22.535 0 01-9.078 5.546zm34.605-91.79l.066-.017.144-.038.198-.054.012-.003.21-.057.121-.035.089-.023.209-.06.044-.012.166-.048.177-.051.032-.009.21-.062.099-.029.109-.032.21-.064.022-.008.186-.056.155-.048.054-.016.208-.066.078-.025.13-.041.209-.067.002-.001.206-.067.134-.044.074-.024.208-.069.057-.02.15-.05.189-.064.019-.007.206-.072.113-.038.095-.034.206-.073.037-.013.17-.061.166-.059.041-.014.206-.076.09-.034.116-.041.205-.077.016-.006.19-.072.146-.055.059-.023.205-.079.07-.026.135-.053.2-.078.005-.002.205-.08.123-.05.08-.033.204-.082.05-.019.154-.063.178-.073.025-.01.203-.085.103-.043.101-.042.202-.086.028-.011.175-.075.155-.067.046-.02.202-.087.082-.035.12-.053.201-.089.007-.003.193-.086.135-.06.066-.031.201-.09.061-.028.139-.063.187-.087.012-.005.2-.093.114-.053.085-.04.199-.094.04-.019.158-.075.165-.079.033-.016.198-.095.093-.045.104-.051.197-.097.02-.01.177-.087.144-.072.052-.026.196-.098.072-.037.124-.063.195-.099.013-.007.013-.007.014-.007.013-.006.012-.007.014-.007.013-.006.013-.007.013-.007.013-.006.013-.007.013-.007.014-.007.012-.006.013-.007.026-.013.014-.007.09-.048.014-.007.005-.002.008-.004.013-.007.013-.007.012-.006.014-.007.013-.007.013-.006.065-.035.013-.006.012-.007.014-.007.013-.006.013-.007.013-.007.012-.007.014-.006.012-.008.014-.006.013-.007.013-.007.013-.006.012-.007.011-.006.003-.001.012-.007.014-.007.013-.007.012-.007.014-.006.012-.007.014-.007.012-.007.013-.007.013-.007.013-.007-7.106 75.951c0 26.469-21.629 48.097-48.098 48.097h-70.068a47.71 47.71 0 01-16.053-2.768c2.096-4.795 4.174-7.728 6.568-12.17 2.912.791 6.543 1.562 9.485 1.562h70.068c19.084 0 34.721-15.638 34.721-34.721l6.592-70.459zm27.196-14.562a57.203 57.203 0 004.61-4.458c11.515-12.507 14.5-30.084 13.513-47.896-.906-16.338-5.19-32.947-8.966-45.335-6.694-21.962-14.892-41.05-27.248-57.981C274.016 27.121 231.729-4.657 193.621.569c-15.083 2.067-27.721 9.768-35.517 23.991a10.705 10.705 0 00-1.043 2.883c-27.894 1.935-56.031 13.252-81.409 29.258-87.358 55.103-78.801 176.851-71.09 286.539 1.663 23.667 3.285 46.751 3.846 68.455.314 12.229-.044 24.935.646 37.084 1.373 24.146 7.495 50.012 34.642 60.361 8.418 3.209 17.597 3.607 27.453 1.476 8.772-1.896 18.178-5.892 28.145-11.751 31.486-18.515 63.481-47.998 90.676-81.238 15.935-19.477 30.308-40.345 42.048-61.145h12.174c16.644 0 31.759-6.793 42.706-17.741 10.928-10.928 17.717-26.01 17.739-42.618l8.064-85.108zM169.408 317.914c1.512.325 3.091.494 4.716.494h1.092l.047-.052c12.932-14.183 24.268-28.071 33.156-43.032 8.804-14.82 15.264-30.764 18.578-49.213 8.083-45.017-2.23-77.965-20.508-97.677-8.254-8.902-18.124-15.101-28.614-18.472a62.047 62.047 0 00-32.29-1.561c-20.742 4.537-40.263 20.007-51.561 47.315-3.515 8.498-5.549 17.051-6.021 25.662 78.806 19.093 98.929 48.777 91.308 81.661-1.615 6.971-4.548 14.021-8.468 21.086a65.37 65.37 0 011.559 14.219 65.055 65.055 0 01-2.994 19.57zm-62.105-84.668c17.975 0 34.25 7.288 46.031 19.068a65.301 65.301 0 0111.662 15.85c1.024-2.641 1.847-5.258 2.446-7.843 5.947-25.656-11.772-49.416-78.999-66.294 1.562 12.068 7.108 26.01 14.821 38.326.216.346.376.675.484.989a66.553 66.553 0 013.555-.096zM85.988 359.871a65.093 65.093 0 01-23.854-14.653c-.294.335-.585.676-.871 1.022-4.204 5.104-7.259 11.675-8.992 18.645-1.79 7.193-2.154 14.712-.918 21.409.42 2.274.901 3.283 1.431 3.156 3.41-.82 8.64-4.981 15.48-12.102 5.354-5.576 11.36-11.416 17.724-17.477zm223.766-160.268c-7.646 8.306-21.015 16.144-33.675 17.236 11.418-115.829-22.074-171.36-108.97-187.334 12.635-23.052 41.735-24.203 70.481-9.665 43.46 24.022 61.692 54.58 74.461 96.461 7.191 23.592 16.301 63.101-2.297 83.302zm-202.451 45.991c29.133 0 52.751 23.618 52.751 52.75 0 4.909-.673 9.66-1.928 14.169-1.724 6.113-4.319 11.455-7.994 16.628-3.959 5.427-8.627 9.91-14.268 13.559l-.044.028c-8.222 5.294-18.01 8.367-28.517 8.367-29.131 0-52.749-23.618-52.749-52.751 0-29.132 23.618-52.75 52.749-52.75z"/></svg>