<?xml version="1.0" encoding="UTF-8"?>
<svg width="24px" height="24px" viewBox="0 0 24 24" version="1.1" xmlns="http://www.w3.org/2000/svg" xmlns:xlink="http://www.w3.org/1999/xlink">
    <g stroke="none" stroke-width="1" fill="none" fill-rule="evenodd">
        <path d="M12,21 C10.4,21 8.85,20.5 7.4,19.5 L12,14.9 L16.6,19.5 C15.15,20.5 13.6,21 12,21 M5.5,17.55 C4.55,16.1 4,14.55 4,12.95 C4,11.35 4.55,9.8 5.5,8.35 L10.1,13 L5.5,17.55 M8.35,5.5 C9.8,4.55 11.35,4 12.95,4 C14.55,4 16.1,4.55 17.55,5.5 L13,10.05 L8.35,5.5 M19.5,8.35 C20.45,9.8 21,11.35 21,12.95 C21,14.55 20.45,16.1 19.5,17.55 L14.9,13 L19.5,8.35 M12,2 C6.5,2 2,6.5 2,12 C2,17.5 6.5,22 12,22 C17.5,22 22,17.5 22,12 C22,6.5 17.5,2 12,2 Z" fill="#000000"></path>
    </g>
</svg>
