<?xml version="1.0" encoding="UTF-8"?>
<svg width="24px" height="24px" viewBox="0 0 24 24" version="1.1" xmlns="http://www.w3.org/2000/svg" xmlns:xlink="http://www.w3.org/1999/xlink">
    <g stroke="none" stroke-width="1" fill="none" fill-rule="evenodd">
        <path d="M12,22 C6.477,22 2,17.523 2,12 C2,6.477 6.477,2 12,2 C17.523,2 22,6.477 22,12 C22,17.523 17.523,22 12,22 Z M12,20 C16.418,20 20,16.418 20,12 C20,7.582 16.418,4 12,4 C7.582,4 4,7.582 4,12 C4,16.418 7.582,20 12,20 Z M11,12 L11,7 L13,7 L13,12 L11,12 Z M11,16 L11,14 L13,14 L13,16 L11,16 Z" fill="#000000"></path>
    </g>
</svg>
